<svg width="159" height="159" viewBox="0 0 159 159" fill="none" xmlns="http://www.w3.org/2000/svg">
<rect x="1" y="1" width="156.25" height="156.25" rx="24" fill="#030303" stroke="url(#paint0_linear_132_63)" stroke-width="2"/>
<g clip-path="url(#clip0_132_63)">
<path d="M57.3272 41.5409C54.2227 43.1818 52.4272 47.0545 51.0909 50.3045C48.9227 55.5773 47.4818 61.1227 46.3773 66.7182C45.1954 72.7091 44.3954 78.7727 43.5682 84.8227C43.2182 87.3863 42.8636 89.9818 43.1318 92.5545C43.4 95.1273 44.3636 97.7227 46.2773 99.4636C40.4136 96.6727 35.1954 92.5363 31.1454 87.4636C30.8 87.0318 30.3046 86.8804 30.1955 86.3395C30.1438 86.2003 30.3136 85.2591 30.3636 84.8773C31.5182 75.65 33.3909 66.5136 35.9591 57.5727C36.6 55.3409 37.4179 52.7875 38.1588 50.5829C38.5293 49.4805 39.2819 49.2532 40.0682 48.8213C41.6864 48.0123 43.1444 47.2225 44.7807 46.4362C46.4171 45.6498 47.9601 45.0005 49.6283 44.3596C51.4464 43.6641 53.1818 42.7954 55.0591 42.2682C55.6773 42.0954 56.7636 41.8409 57.3272 41.5409Z" fill="white"/>
<path d="M54.5183 99.4046L52.3683 109.5L52.0501 110.941C46.2865 111.732 39.1819 113.991 34.4728 111.295C27.341 107.214 29.0137 99.15 29.5819 92.2637C29.7455 90.25 29.941 88.2409 30.1865 86.2273C30.1683 86.3909 30.6865 86.8818 30.8001 87.0227C34.3319 91.5 38.8228 95.3773 44.0819 98.2637C45.1046 98.8227 46.1455 99.3909 47.2683 99.7773C49.6455 100.605 52.1455 99.9182 54.5137 99.4046H54.5183Z" fill="white"/>
<path d="M54.5183 99.4046L52.3683 109.5L52.0501 110.941C46.2865 111.732 39.1819 113.991 34.4728 111.295C27.341 107.214 29.0137 99.15 29.5819 92.2637C29.7455 90.25 29.941 88.2409 30.1865 86.2273C30.1683 86.3909 30.6865 86.8818 30.8001 87.0227C34.3319 91.5 38.8228 95.3773 44.0819 98.2637C45.1046 98.8227 46.1455 99.3909 47.2683 99.7773C49.6455 100.605 52.1455 99.9182 54.5137 99.4046H54.5183Z" fill="url(#paint1_linear_132_63)" fill-opacity="0.5"/>
<g filter="url(#filter0_i_132_63)">
<path d="M101.1 71.7818C101.1 71.7818 100.755 72.7499 100.664 72.9318C100.214 73.8636 99.9 74.8409 99.4863 75.7863C99.0727 76.7318 98.6801 77.9272 98.1028 78.8045C96.8301 80.7499 95.1 82.2272 93.1727 83.6954C93.4045 83.5181 92.9272 82.9408 92.8272 82.7863C91.8954 81.3408 90.7682 80.0181 89.4772 78.8045C88.9909 78.3545 88.4863 77.9227 87.9682 77.4999C85.9818 75.8863 83.7727 74.4863 81.4954 73.209C81.3182 73.109 81.1409 73.0136 80.9636 72.9136C79.0636 71.8681 77.0909 70.9227 75.0863 70.0408C73.1045 69.1681 71.0727 68.3772 69.0091 67.6636C67.2909 67.0681 65.5591 66.5181 63.7909 66.0454C63.4818 65.9636 59.4545 64.9954 59.4272 65.2363C60.0318 60.1136 61.3045 57.0681 66.5772 55.9318C70.9591 55.0499 75.7 56.0727 79.4727 57.4908C86.3954 60.1045 92.3909 64.2954 97.7318 68.7818C98.8863 69.7499 101.091 71.7772 101.095 71.7772L101.1 71.7818Z" fill="url(#paint2_linear_132_63)"/>
</g>
<path d="M101.1 71.7818C101.1 71.7818 100.755 72.7499 100.664 72.9318C100.214 73.8636 99.9 74.8409 99.4863 75.7863C99.0727 76.7318 98.6 77.6636 98.0227 78.5409C96.75 80.4863 95.1 82.2272 93.1727 83.6954C93.4045 83.5181 92.9272 82.9408 92.8272 82.7863C91.8954 81.3408 90.7682 80.0181 89.4772 78.8045C88.9909 78.3545 88.4863 77.9227 87.9682 77.4999C85.9818 75.8863 83.7727 74.4863 81.4954 73.209C81.3182 73.109 81.1409 73.0136 80.9636 72.9136C79.0636 71.8681 77.0909 70.9227 75.0863 70.0408C73.1045 69.1681 71.0727 68.3772 69.0091 67.6636C67.2909 67.0681 65.5591 66.5181 63.7909 66.0454C63.4818 65.9636 59.4545 64.9954 59.4272 65.2363C60.0318 60.1136 61.3045 57.0681 66.5772 55.9318C70.9591 55.0499 75.7 56.0727 79.4727 57.4908C86.3954 60.1045 92.3909 64.2954 97.7318 68.7818C98.8863 69.7499 101.091 71.7772 101.095 71.7772L101.1 71.7818Z" fill="url(#paint3_linear_132_63)" fill-opacity="0.5"/>
<g filter="url(#filter1_i_132_63)">
<path d="M66.0636 109.432C66.0591 107.291 66.1772 104.864 66.3954 102.277C66.4 102.236 66.4045 102.196 66.4045 102.155C66.5318 100.659 66.6863 99.1091 66.8681 97.541C67.2409 97.3728 67.6727 97.1682 68.0727 96.9728C72.4909 94.841 81.55 90.941 87.8318 87.2364C91.4227 85.1228 95.0318 82.7 97.4272 79.4819C98.4545 78.1 99.1681 76.5773 99.8 75.0273C100.241 73.9455 100.655 72.8591 101.1 71.7819C119.745 87.9637 83.4363 102.836 66.0636 109.432Z" fill="url(#paint4_linear_132_63)"/>
</g>
<path d="M66.0636 109.432C66.0591 107.291 66.1772 104.864 66.3954 102.277C66.4 102.236 66.4045 102.196 66.4045 102.155C66.5318 100.659 66.6863 99.1091 66.8681 97.541C67.2409 97.3728 67.6727 97.1682 68.0727 96.9728C72.4909 94.841 81.55 90.941 87.8318 87.2364C91.4227 85.1228 95.0318 82.7 97.4272 79.4819C98.4545 78.1 99.1681 76.5773 99.8 75.0273C100.241 73.9455 100.655 72.8591 101.1 71.7819C119.745 87.9637 83.4363 102.836 66.0636 109.432Z" fill="url(#paint5_linear_132_63)" fill-opacity="0.5"/>
<path d="M73.459 69.3045C72.6772 69.0545 71.7227 69.6045 71.5363 70.3863C70.5045 74.7272 68.1227 86.709 66.8681 97.5454C66.6863 99.1136 66.5318 100.664 66.4045 102.159C66.4045 102.2 66.3999 102.241 66.3954 102.282C66.1772 104.868 66.059 107.295 66.0636 109.436C66.0863 113.473 66.5954 116.864 67.8272 117.877C67.8318 117.877 67.8409 117.886 67.8499 117.891C65.1363 116.6 58.9227 112.659 53.259 105.173C54.6727 97.9454 55.7227 90.7 56.9045 83.4909C57.8999 77.409 58.7501 71.101 59.4637 65.0238C63.0864 65.1647 72.2863 68.859 73.4636 69.309L73.459 69.3045Z" fill="white"/>
<path d="M67.2181 67.5233C68.9777 68.1285 70.623 68.7475 71.7753 69.1906C71.4323 69.453 71.1562 69.8244 71.0499 70.2704L71.0499 70.2707C70.0141 74.6281 67.6286 86.6294 66.3715 97.4878C66.189 99.0612 66.034 100.616 65.9063 102.117L65.9045 102.138V102.159C65.9045 102.168 65.9035 102.181 65.8985 102.227L65.8983 102.227L65.8972 102.24C65.6781 104.836 65.559 107.278 65.5636 109.437L65.5636 109.439C65.575 111.473 65.7088 113.364 66.001 114.885C66.1207 115.508 66.2687 116.078 66.4501 116.576C63.3934 114.788 58.4219 111.112 53.7927 105.049C54.8027 99.8574 55.6287 94.6536 56.4513 89.4709C56.764 87.5009 57.0762 85.5339 57.3979 83.5718L57.3979 83.5716C58.3689 77.6393 59.2016 71.4937 59.9042 65.5579C60.7051 65.6427 61.7343 65.8637 62.8843 66.1724C64.2593 66.5415 65.7738 67.0265 67.2181 67.5233Z" stroke="#F4E409" stroke-opacity="0.1"/>
<path d="M71.5365 70.3818C71.7228 69.6 72.6774 69.0545 73.4592 69.3C72.2819 68.85 63.0547 65.3772 59.4319 65.2363C58.7228 71.3136 57.8956 77.4 56.9001 83.4818C56.791 84.15 56.6819 84.8227 56.5774 85.4909L68.4138 86.6091C69.5683 79.5409 70.8501 73.2681 71.5365 70.3818Z" fill="url(#paint6_linear_132_63)" fill-opacity="0.5"/>
<path d="M66.4045 102.155C66.5318 100.659 66.6863 99.1091 66.8681 97.541C67.2909 93.9137 67.8363 90.1637 68.4136 86.6091L56.5772 85.491C55.5227 92.041 54.5409 98.6091 53.259 105.164C58.9227 112.655 65.1363 116.591 67.8499 117.882C67.8454 117.882 67.8363 117.873 67.8272 117.868C66.5954 116.85 66.0818 113.464 66.0636 109.427C66.059 107.286 66.1772 104.859 66.3954 102.273C66.3999 102.232 66.4045 102.191 66.4045 102.15V102.155Z" fill="url(#paint7_linear_132_63)" fill-opacity="0.5"/>
<path d="M30.3636 84.8727C30.3136 85.2546 30.194 85.7711 30.2268 86.0009C30.3359 86.5418 30.7999 87.0273 31.1454 87.4591C35.1999 92.5318 40.4136 96.6682 46.2772 99.4591C44.3636 97.7182 43.3999 95.1227 43.1318 92.55C42.8636 89.9773 43.2181 87.3818 43.5681 84.8182C44.1818 80.3409 44.7772 75.8591 45.5272 71.4046L33.2727 68.1318C32.0408 73.6637 31.0681 79.25 30.3636 84.8682V84.8727Z" fill="url(#paint8_linear_132_63)" fill-opacity="0.5"/>
<path d="M55.0544 42.2636C53.1772 42.7909 51.4959 43.5937 49.6778 44.2891C48.0096 44.9255 46.3641 45.6346 44.755 46.4119C43.1232 47.1982 41.2684 48.2116 39.6502 49.0207C38.8639 49.457 38.3383 49.9185 38.009 50.9046C37.2726 53.1091 36.5953 55.3364 35.9544 57.5682C34.9499 61.0591 34.059 64.5864 33.2681 68.1318L45.5226 71.4046C45.7862 69.8364 46.0681 68.2727 46.3726 66.7136C47.4772 61.1182 48.9135 55.5727 51.0862 50.3C52.4226 47.0546 54.2181 43.1773 57.3226 41.5364C56.759 41.8318 55.6726 42.0864 55.0544 42.2636Z" fill="url(#paint9_linear_132_63)" fill-opacity="0.5"/>
<g filter="url(#filter2_i_132_63)">
<path d="M96.4045 123.236C87.2591 127.945 76.95 130.727 66.6136 129.836C62.0182 129.441 56.7364 129.386 52.8045 126.936C49.9409 125.155 50.1045 121.395 50.4455 118.655C50.9364 114.673 52.1182 110.823 52.9182 106.891C52.9773 106.605 53.1852 105.418 53.2591 105.168C55.5455 108.191 58.2364 110.991 61.3273 113.4C63.2636 114.909 65.3182 116.582 67.6955 117.527C74.8864 120.386 80.1682 117.6 86.5546 114.295C93.0227 110.95 99.4136 106.55 104.7 101.877C116.364 91.5636 122.205 75.9136 112.723 62.9C107.677 55.9727 100.309 49.55 91.9318 45.85C84.9727 42.7773 77.2364 41.2227 69.4773 40.9273C66.5909 40.8182 63.6455 40.8045 60.7955 41.2636C57.9455 41.7227 54.9864 42.6364 52.1818 43.5909C47.2818 45.2591 42.5818 47.4409 38.3455 50.1773C39.6773 46.5773 41.3136 43.0727 43.5045 39.9C45.6318 36.8136 48.5318 33.8454 52.3727 32.4273C64.0227 28.15 100.359 27.4364 118.923 48.1454C133.873 64.8273 131.518 92.2454 116.4 108.223C111.027 113.9 104.136 119.255 96.4136 123.232L96.4045 123.236Z" fill="url(#paint10_linear_132_63)"/>
</g>
<path d="M53.408 106.991C53.4276 106.896 53.4628 106.707 53.5031 106.49C53.5124 106.44 53.522 106.389 53.5317 106.336C55.6928 109.06 58.1898 111.589 61.0199 113.794L61.3273 113.4L61.0199 113.794C61.1541 113.899 61.2893 114.005 61.4255 114.111C63.2349 115.526 65.2248 117.083 67.5107 117.992L67.6955 117.527L67.5107 117.992C74.857 120.913 80.2998 118.096 86.5719 114.849L86.7843 114.74C86.7843 114.74 86.7843 114.74 86.7843 114.74C93.2892 111.375 99.7141 106.952 105.031 102.252L105.031 102.252C110.921 97.0436 115.363 90.4699 117.126 83.5241C118.892 76.5645 117.963 69.243 113.127 62.6056C108.036 55.6165 100.602 49.1326 92.1338 45.3926L92.1338 45.3926C85.1076 42.2903 77.3075 40.7251 69.4963 40.4276L69.4962 40.4276C66.6028 40.3183 63.6167 40.3027 60.7159 40.77C57.8223 41.2361 54.8302 42.1614 52.0207 43.1176L52.0207 43.1176C47.5722 44.632 43.2822 46.5688 39.3468 48.9599C40.568 45.8788 42.0375 42.9044 43.916 40.1841L43.9162 40.1837C46.0135 37.141 48.8399 34.2648 52.5456 32.8964C58.2695 30.7951 70.1763 29.5436 82.983 31.4112C95.7826 33.2779 109.377 38.2456 118.55 48.4792C133.302 64.9395 131.003 92.0624 116.037 107.879C110.702 113.517 103.856 118.836 96.1874 122.786C96.1865 122.786 96.1856 122.787 96.1847 122.787L96.1809 122.789L96.1757 122.792C87.091 127.47 76.8763 130.219 66.6566 129.338L66.6565 129.338C66.0204 129.283 65.3764 129.235 64.7281 129.187C63.0065 129.059 61.2541 128.928 59.5367 128.663C57.1812 128.298 54.9532 127.686 53.069 126.512L53.0687 126.512C51.7929 125.718 51.1732 124.48 50.9152 123.065C50.6551 121.639 50.7723 120.077 50.9416 118.716L50.9417 118.716C51.1838 116.752 51.597 114.815 52.0528 112.868C52.1819 112.316 52.3147 111.763 52.4479 111.207C52.7829 109.811 53.1205 108.404 53.408 106.991ZM53.408 106.991C53.408 106.992 53.4079 106.992 53.4079 106.992L52.9182 106.891L53.4081 106.991C53.4081 106.991 53.4081 106.991 53.408 106.991ZM53.1218 105.812C53.177 105.525 53.2291 105.27 53.2591 105.168C53.3901 105.341 53.5224 105.514 53.6561 105.686L53.1218 105.812Z" stroke="#F4E409" stroke-opacity="0.05" stroke-miterlimit="10"/>
</g>
<defs>
<filter id="filter0_i_132_63" x="55.4272" y="55.6036" width="45.6726" height="32.0918" filterUnits="userSpaceOnUse" color-interpolation-filters="sRGB">
<feFlood flood-opacity="0" result="BackgroundImageFix"/>
<feBlend mode="normal" in="SourceGraphic" in2="BackgroundImageFix" result="shape"/>
<feColorMatrix in="SourceAlpha" type="matrix" values="0 0 0 0 0 0 0 0 0 0 0 0 0 0 0 0 0 0 127 0" result="hardAlpha"/>
<feOffset dx="-4" dy="4"/>
<feGaussianBlur stdDeviation="2"/>
<feComposite in2="hardAlpha" operator="arithmetic" k2="-1" k3="1"/>
<feColorMatrix type="matrix" values="0 0 0 0 0.899832 0 0 0 0 0.84383 0 0 0 0 0.0773021 0 0 0 0.4 0"/>
<feBlend mode="normal" in2="shape" result="effect1_innerShadow_132_63"/>
</filter>
<filter id="filter1_i_132_63" x="62.0635" y="71.7819" width="44.2231" height="41.65" filterUnits="userSpaceOnUse" color-interpolation-filters="sRGB">
<feFlood flood-opacity="0" result="BackgroundImageFix"/>
<feBlend mode="normal" in="SourceGraphic" in2="BackgroundImageFix" result="shape"/>
<feColorMatrix in="SourceAlpha" type="matrix" values="0 0 0 0 0 0 0 0 0 0 0 0 0 0 0 0 0 0 127 0" result="hardAlpha"/>
<feOffset dx="-4" dy="4"/>
<feGaussianBlur stdDeviation="2"/>
<feComposite in2="hardAlpha" operator="arithmetic" k2="-1" k3="1"/>
<feColorMatrix type="matrix" values="0 0 0 0 0.899832 0 0 0 0 0.84383 0 0 0 0 0.0773021 0 0 0 0.4 0"/>
<feBlend mode="normal" in2="shape" result="effect1_innerShadow_132_63"/>
</filter>
<filter id="filter2_i_132_63" x="34.3455" y="29.9988" width="94.6653" height="104.003" filterUnits="userSpaceOnUse" color-interpolation-filters="sRGB">
<feFlood flood-opacity="0" result="BackgroundImageFix"/>
<feBlend mode="normal" in="SourceGraphic" in2="BackgroundImageFix" result="shape"/>
<feColorMatrix in="SourceAlpha" type="matrix" values="0 0 0 0 0 0 0 0 0 0 0 0 0 0 0 0 0 0 127 0" result="hardAlpha"/>
<feOffset dx="-4" dy="4"/>
<feGaussianBlur stdDeviation="2"/>
<feComposite in2="hardAlpha" operator="arithmetic" k2="-1" k3="1"/>
<feColorMatrix type="matrix" values="0 0 0 0 0.899832 0 0 0 0 0.84383 0 0 0 0 0.0773021 0 0 0 0.4 0"/>
<feBlend mode="normal" in2="shape" result="effect1_innerShadow_132_63"/>
</filter>
<linearGradient id="paint0_linear_132_63" x1="10.1447" y1="5.44776" x2="148.19" y2="155.025" gradientUnits="userSpaceOnUse">
<stop stop-color="#6A5325"/>
<stop offset="0.201932" stop-color="#896C2E"/>
<stop offset="0.408668" stop-color="#E0C483"/>
<stop offset="0.62502" stop-color="#6A5325"/>
<stop offset="0.86541" stop-color="#E0C483"/>
<stop offset="1" stop-color="#A88636"/>
</linearGradient>
<linearGradient id="paint1_linear_132_63" x1="53.3046" y1="104.695" x2="39.4501" y2="100.868" gradientUnits="userSpaceOnUse">
<stop stop-opacity="0.3"/>
<stop offset="1" stop-color="#EDF1F2" stop-opacity="0"/>
</linearGradient>
<linearGradient id="paint2_linear_132_63" x1="71.0035" y1="59.8843" x2="103.898" y2="77.2243" gradientUnits="userSpaceOnUse">
<stop stop-color="white"/>
<stop offset="0.501959" stop-color="#F82757"/>
<stop offset="0.867222" stop-color="#634A80"/>
</linearGradient>
<linearGradient id="paint3_linear_132_63" x1="94.3772" y1="81.7045" x2="80.6318" y2="68.8499" gradientUnits="userSpaceOnUse">
<stop stop-opacity="0.3"/>
<stop offset="1" stop-color="#EDF1F2" stop-opacity="0"/>
</linearGradient>
<linearGradient id="paint4_linear_132_63" x1="67.7111" y1="79.651" x2="103.484" y2="73.351" gradientUnits="userSpaceOnUse">
<stop stop-color="white"/>
<stop offset="0.501959" stop-color="#F82757"/>
<stop offset="0.867222" stop-color="#634A80"/>
</linearGradient>
<linearGradient id="paint5_linear_132_63" x1="66.0636" y1="90.6046" x2="106.286" y2="90.6046" gradientUnits="userSpaceOnUse">
<stop stop-opacity="0.3"/>
<stop offset="1" stop-color="#EDF1F2" stop-opacity="0"/>
</linearGradient>
<linearGradient id="paint6_linear_132_63" x1="66.5047" y1="66.9227" x2="64.3456" y2="80.0591" gradientUnits="userSpaceOnUse">
<stop stop-opacity="0.3"/>
<stop offset="1" stop-color="#EDF1F2" stop-opacity="0"/>
</linearGradient>
<linearGradient id="paint7_linear_132_63" x1="60.5636" y1="111.236" x2="61.0681" y2="96.6728" gradientUnits="userSpaceOnUse">
<stop stop-opacity="0.3"/>
<stop offset="1" stop-color="#EDF1F2" stop-opacity="0"/>
</linearGradient>
<linearGradient id="paint8_linear_132_63" x1="36.909" y1="93.5364" x2="40.1181" y2="82.6318" gradientUnits="userSpaceOnUse">
<stop stop-opacity="0.3"/>
<stop offset="1" stop-color="#EDF1F2" stop-opacity="0"/>
</linearGradient>
<linearGradient id="paint9_linear_132_63" x1="46.1499" y1="43.1773" x2="44.759" y2="62.2046" gradientUnits="userSpaceOnUse">
<stop stop-opacity="0.3"/>
<stop offset="1" stop-color="#EDF1F2" stop-opacity="0"/>
</linearGradient>
<linearGradient id="paint10_linear_132_63" x1="67.4992" y1="41.2562" x2="143.433" y2="49.9375" gradientUnits="userSpaceOnUse">
<stop stop-color="white"/>
<stop offset="0.501959" stop-color="#F82757"/>
<stop offset="0.867222" stop-color="#634A80"/>
</linearGradient>
<clipPath id="clip0_132_63">
<rect width="100" height="100" fill="white" transform="translate(29 30)"/>
</clipPath>
</defs>
</svg>
