<svg width="80" height="80" viewBox="0 0 80 80" fill="none" xmlns="http://www.w3.org/2000/svg">
<g clip-path="url(#clip0_134_311)">
<rect width="80" height="80" rx="18" fill="#030303"/>
<g filter="url(#filter0_f_134_311)">
<ellipse cx="53.5067" cy="-64.3564" rx="141.507" ry="79.6436" fill="url(#paint0_radial_134_311)"/>
</g>
<g filter="url(#filter1_f_134_311)">
<ellipse cx="87.2928" cy="166.829" rx="141.507" ry="79.6436" fill="url(#paint1_radial_134_311)"/>
</g>
<g clip-path="url(#clip1_134_311)">
<path d="M29.1637 20.7705C27.6115 21.591 26.7137 23.5273 26.0456 25.1523C24.9615 27.7887 24.241 30.5614 23.6887 33.3591C23.0978 36.3546 22.6978 39.3864 22.2842 42.4114C22.1092 43.6932 21.9319 44.991 22.066 46.2773C22.2001 47.5637 22.6819 48.8614 23.6387 49.7319C20.7069 48.3364 18.0978 46.2682 16.0728 43.7319C15.9001 43.516 15.6524 43.4403 15.5979 43.1698C15.572 43.1002 15.6569 42.6296 15.6819 42.4387C16.2592 37.8251 17.1956 33.2569 18.4797 28.7864C18.8001 27.6705 19.2091 26.3938 19.5795 25.2915C19.7648 24.7403 20.1411 24.6266 20.5342 24.4107C21.3433 24.0062 22.0723 23.6113 22.8905 23.2181C23.7087 22.825 24.4802 22.5003 25.3143 22.1799C26.2233 21.8321 27.091 21.3978 28.0297 21.1341C28.3387 21.0478 28.8819 20.9205 29.1637 20.7705Z" fill="white"/>
<path d="M27.759 49.7022L26.684 54.7499L26.5249 55.4703C23.6431 55.8658 20.0908 56.9953 17.7363 55.6476C14.1704 53.6067 15.0067 49.5749 15.2908 46.1317C15.3726 45.1249 15.4704 44.1203 15.5931 43.1135C15.584 43.1953 15.8431 43.4408 15.8999 43.5113C17.6658 45.7499 19.9113 47.6885 22.5408 49.1317C23.0522 49.4113 23.5726 49.6953 24.134 49.8885C25.3226 50.3022 26.5726 49.959 27.7567 49.7022H27.759Z" fill="white"/>
<path d="M27.759 49.7022L26.684 54.7499L26.5249 55.4703C23.6431 55.8658 20.0908 56.9953 17.7363 55.6476C14.1704 53.6067 15.0067 49.5749 15.2908 46.1317C15.3726 45.1249 15.4704 44.1203 15.5931 43.1135C15.584 43.1953 15.8431 43.4408 15.8999 43.5113C17.6658 45.7499 19.9113 47.6885 22.5408 49.1317C23.0522 49.4113 23.5726 49.6953 24.134 49.8885C25.3226 50.3022 26.5726 49.959 27.7567 49.7022H27.759Z" fill="url(#paint2_linear_134_311)" fill-opacity="0.5"/>
<path d="M51.05 35.8908C51.05 35.8908 50.8773 36.3749 50.8318 36.4658C50.6068 36.9317 50.45 37.4204 50.2432 37.8931C50.0364 38.3658 49.84 38.9635 49.5514 39.4022C48.915 40.3749 48.05 41.1135 47.0863 41.8476C47.2023 41.759 46.9636 41.4704 46.9136 41.3931C46.4477 40.6704 45.8841 40.009 45.2386 39.4022C44.9954 39.1772 44.7432 38.9613 44.4841 38.7499C43.4909 37.9431 42.3863 37.2431 41.2477 36.6045C41.1591 36.5545 41.0704 36.5067 40.9818 36.4567C40.0318 35.934 39.0454 35.4613 38.0432 35.0204C37.0523 34.584 36.0363 34.1885 35.0045 33.8317C34.1454 33.534 33.2795 33.259 32.3954 33.0226C32.2409 32.9817 30.2273 32.4976 30.2136 32.6181C30.5159 30.0567 31.1523 28.534 33.7886 27.9658C35.9795 27.5249 38.35 28.0363 40.2364 28.7454C43.6977 30.0522 46.6954 32.1476 49.3659 34.3908C49.9432 34.8749 51.0454 35.8885 51.0477 35.8885L51.05 35.8908Z" fill="white"/>
<path d="M51.05 35.8908C51.05 35.8908 50.8773 36.3749 50.8318 36.4658C50.6068 36.9317 50.45 37.4204 50.2432 37.8931C50.0364 38.3658 49.8 38.8317 49.5114 39.2704C48.875 40.2431 48.05 41.1135 47.0863 41.8476C47.2023 41.759 46.9636 41.4704 46.9136 41.3931C46.4477 40.6704 45.8841 40.009 45.2386 39.4022C44.9954 39.1772 44.7432 38.9613 44.4841 38.7499C43.4909 37.9431 42.3863 37.2431 41.2477 36.6045C41.1591 36.5545 41.0704 36.5067 40.9818 36.4567C40.0318 35.934 39.0454 35.4613 38.0432 35.0204C37.0523 34.584 36.0363 34.1885 35.0045 33.8317C34.1454 33.534 33.2795 33.259 32.3954 33.0226C32.2409 32.9817 30.2273 32.4976 30.2136 32.6181C30.5159 30.0567 31.1523 28.534 33.7886 27.9658C35.9795 27.5249 38.35 28.0363 40.2364 28.7454C43.6977 30.0522 46.6954 32.1476 49.3659 34.3908C49.9432 34.8749 51.0454 35.8885 51.0477 35.8885L51.05 35.8908Z" fill="url(#paint3_linear_134_311)" fill-opacity="0.5"/>
<path d="M33.5318 54.7159C33.5295 53.6454 33.5886 52.4318 33.6977 51.1386C33.7 51.1181 33.7023 51.0977 33.7023 51.0772C33.7659 50.3295 33.8432 49.5545 33.9341 48.7704C34.1204 48.6863 34.3363 48.5841 34.5363 48.4863C36.7454 47.4204 41.275 45.4704 44.4159 43.6181C46.2113 42.5613 48.0159 41.35 49.2136 39.7409C49.7273 39.05 50.0841 38.2886 50.4 37.5136C50.6204 36.9727 50.8273 36.4295 51.05 35.8909C60.3727 43.9818 42.2182 51.4181 33.5318 54.7159Z" fill="white"/>
<path d="M33.5318 54.7159C33.5295 53.6454 33.5886 52.4318 33.6977 51.1386C33.7 51.1181 33.7023 51.0977 33.7023 51.0772C33.7659 50.3295 33.8432 49.5545 33.9341 48.7704C34.1204 48.6863 34.3363 48.5841 34.5363 48.4863C36.7454 47.4204 41.275 45.4704 44.4159 43.6181C46.2113 42.5613 48.0159 41.35 49.2136 39.7409C49.7273 39.05 50.0841 38.2886 50.4 37.5136C50.6204 36.9727 50.8273 36.4295 51.05 35.8909C60.3727 43.9818 42.2182 51.4181 33.5318 54.7159Z" fill="url(#paint4_linear_134_311)" fill-opacity="0.5"/>
<path d="M37.2296 34.6523C36.8387 34.5273 36.3615 34.8023 36.2683 35.1932C35.7524 37.3637 34.5615 43.3546 33.9342 48.7728C33.8433 49.5569 33.766 50.3319 33.7024 51.0796C33.7024 51.1 33.7001 51.1205 33.6978 51.1409C33.5887 52.4341 33.5296 53.6478 33.5319 54.7182C33.5433 56.7364 33.7978 58.4319 34.4137 58.9387C34.416 58.9387 34.4205 58.9432 34.4251 58.9455C33.0683 58.3 29.9615 56.3296 27.1296 52.5864C27.8365 48.9728 28.3615 45.35 28.9524 41.7455C29.4501 38.7046 29.8752 35.5506 30.232 32.5119C32.0433 32.5824 36.6433 34.4296 37.2319 34.6546L37.2296 34.6523Z" fill="white"/>
<path d="M34.0278 33.9981C34.7405 34.2433 35.4151 34.4927 35.9512 34.6962L36.2683 35.1932C35.7524 37.3637 34.5615 43.3546 33.9342 48.7728L33.4375 48.7152C33.4375 48.7152 33.4375 48.7152 33.4375 48.7153C33.346 49.5045 33.2682 50.2846 33.2042 51.0372L33.2024 51.0583V51.0719L33.2022 51.0738L33.2009 51.0857L33.2007 51.0857L33.1996 51.0989C33.0896 52.4022 33.0296 53.6308 33.0319 54.7193L33.0319 54.721C33.0377 55.746 33.105 56.7081 33.2551 57.4895C33.2713 57.5739 33.2886 57.6568 33.307 57.738C31.8129 56.7791 29.6782 55.0764 27.6633 52.4615C28.1595 49.8979 28.5677 47.3267 28.9734 44.7706C29.1296 43.7865 29.2854 42.8047 29.4458 41.8264L29.4458 41.8263C29.9183 38.9394 30.3253 35.9525 30.6706 33.0599C31.0099 33.1126 31.4201 33.205 31.8775 33.3277C32.5573 33.5102 33.3085 33.7507 34.0278 33.9981Z" stroke="#F4E409" stroke-opacity="0.1"/>
<path d="M36.2681 35.1909C36.3613 34.8 36.8386 34.5273 37.2295 34.65C36.6408 34.425 32.0272 32.6886 30.2158 32.6182C29.8613 35.6568 29.4477 38.7 28.9499 41.7409C28.8954 42.075 28.8408 42.4113 28.7886 42.7454L34.7068 43.3045C35.284 39.7704 35.9249 36.6341 36.2681 35.1909Z" fill="url(#paint5_linear_134_311)" fill-opacity="0.5"/>
<path d="M33.7024 51.0772C33.766 50.3295 33.8433 49.5545 33.9342 48.7704C34.1455 46.9567 34.4183 45.0817 34.7069 43.3045L28.7887 42.7454C28.2615 46.0204 27.7705 49.3045 27.1296 52.5817C29.9615 56.3272 33.0683 58.2954 34.4251 58.9408C34.4228 58.9408 34.4183 58.9363 34.4137 58.934C33.7978 58.4249 33.541 56.7317 33.5319 54.7135C33.5296 53.6431 33.5887 52.4295 33.6978 51.1363C33.7001 51.1158 33.7024 51.0954 33.7024 51.0749V51.0772Z" fill="url(#paint6_linear_134_311)" fill-opacity="0.5"/>
<path d="M15.6818 42.4364C15.6568 42.6273 15.597 42.8855 15.6134 43.0005C15.668 43.2709 15.9 43.5136 16.0727 43.7296C18.1 46.2659 20.7068 48.3341 23.6386 49.7296C22.6818 48.8591 22.2 47.5614 22.0659 46.275C21.9318 44.9886 22.1091 43.6909 22.2841 42.4091C22.5909 40.1705 22.8886 37.9296 23.2636 35.7023L17.1363 34.0659C16.5204 36.8318 16.0341 39.625 15.6818 42.4341V42.4364Z" fill="url(#paint7_linear_134_311)" fill-opacity="0.5"/>
<path d="M28.0272 21.1317C27.0886 21.3953 26.248 21.7967 25.3389 22.1444C24.5048 22.4626 23.6821 22.8172 22.8775 23.2058C22.0616 23.599 21.1342 24.1057 20.3251 24.5102C19.9319 24.7284 19.6692 24.9591 19.5045 25.4522C19.1363 26.5544 18.7977 27.6681 18.4772 28.784C17.9749 30.5294 17.5295 32.2931 17.134 34.0658L23.2613 35.7022C23.3931 34.9181 23.534 34.1362 23.6863 33.3567C24.2386 30.559 24.9568 27.7862 26.0431 25.1499C26.7113 23.5272 27.609 21.5885 29.1613 20.7681C28.8795 20.9158 28.3363 21.0431 28.0272 21.1317Z" fill="url(#paint8_linear_134_311)" fill-opacity="0.5"/>
<path d="M48.7022 61.6183C44.1294 63.9728 38.9749 65.3638 33.8067 64.9183C31.509 64.7206 28.8681 64.6933 26.9022 63.4683C25.4703 62.5774 25.5522 60.6978 25.7226 59.3274C25.9681 57.3365 26.559 55.4115 26.959 53.4456C26.9885 53.3024 27.0925 52.7091 27.1294 52.5842C28.2726 54.0956 29.6181 55.4956 31.1635 56.7001C32.1317 57.4547 33.159 58.291 34.3476 58.7638C37.9431 60.1933 40.584 58.8001 43.7772 57.1478C47.0112 55.4751 50.2067 53.2751 52.8499 50.9388C58.6817 45.7819 61.6022 37.9569 56.8612 31.4501C54.3385 27.9865 50.6544 24.7751 46.4658 22.9251C42.9862 21.3888 39.1181 20.6115 35.2385 20.4638C33.7953 20.4092 32.3226 20.4024 30.8976 20.6319C29.4726 20.8615 27.9931 21.3183 26.5908 21.7956C24.1408 22.6297 21.7908 23.7206 19.6726 25.0888C20.3385 23.2888 21.1567 21.5365 22.2522 19.9501C23.3158 18.4069 24.7658 16.9228 26.6862 16.2138C32.5112 14.0751 50.6794 13.7183 59.9612 24.0728C67.4362 32.4138 66.259 46.1228 58.6999 54.1115C56.0135 56.9501 52.5681 59.6274 48.7067 61.616L48.7022 61.6183Z" fill="white"/>
</g>
</g>
<defs>
<filter id="filter0_f_134_311" x="-128" y="-184" width="363.013" height="239.287" filterUnits="userSpaceOnUse" color-interpolation-filters="sRGB">
<feFlood flood-opacity="0" result="BackgroundImageFix"/>
<feBlend mode="normal" in="SourceGraphic" in2="BackgroundImageFix" result="shape"/>
<feGaussianBlur stdDeviation="20" result="effect1_foregroundBlur_134_311"/>
</filter>
<filter id="filter1_f_134_311" x="-94.2139" y="47.1855" width="363.013" height="239.287" filterUnits="userSpaceOnUse" color-interpolation-filters="sRGB">
<feFlood flood-opacity="0" result="BackgroundImageFix"/>
<feBlend mode="normal" in="SourceGraphic" in2="BackgroundImageFix" result="shape"/>
<feGaussianBlur stdDeviation="20" result="effect1_foregroundBlur_134_311"/>
</filter>
<radialGradient id="paint0_radial_134_311" cx="0" cy="0" r="1" gradientUnits="userSpaceOnUse" gradientTransform="translate(52.1676 -43.5855) rotate(-90.7538) scale(114.01 202.567)">
<stop stop-color="#FA175D"/>
<stop offset="1" stop-color="#FD6D42"/>
</radialGradient>
<radialGradient id="paint1_radial_134_311" cx="0" cy="0" r="1" gradientUnits="userSpaceOnUse" gradientTransform="translate(74.2861 176.686) rotate(87.5284) scale(69.5647 123.599)">
<stop stop-color="#FA175D"/>
<stop offset="1" stop-color="#41649A"/>
</radialGradient>
<linearGradient id="paint2_linear_134_311" x1="27.1522" y1="52.3476" x2="20.2249" y2="50.434" gradientUnits="userSpaceOnUse">
<stop stop-opacity="0.3"/>
<stop offset="1" stop-color="#EDF1F2" stop-opacity="0"/>
</linearGradient>
<linearGradient id="paint3_linear_134_311" x1="47.6886" y1="40.8522" x2="40.8159" y2="34.4249" gradientUnits="userSpaceOnUse">
<stop stop-opacity="0.3"/>
<stop offset="1" stop-color="#EDF1F2" stop-opacity="0"/>
</linearGradient>
<linearGradient id="paint4_linear_134_311" x1="33.5318" y1="45.3022" x2="53.6432" y2="45.3022" gradientUnits="userSpaceOnUse">
<stop stop-opacity="0.3"/>
<stop offset="1" stop-color="#EDF1F2" stop-opacity="0"/>
</linearGradient>
<linearGradient id="paint5_linear_134_311" x1="33.7522" y1="33.4613" x2="32.6727" y2="40.0295" gradientUnits="userSpaceOnUse">
<stop stop-opacity="0.3"/>
<stop offset="1" stop-color="#EDF1F2" stop-opacity="0"/>
</linearGradient>
<linearGradient id="paint6_linear_134_311" x1="30.7819" y1="55.6181" x2="31.0342" y2="48.3363" gradientUnits="userSpaceOnUse">
<stop stop-opacity="0.3"/>
<stop offset="1" stop-color="#EDF1F2" stop-opacity="0"/>
</linearGradient>
<linearGradient id="paint7_linear_134_311" x1="18.9545" y1="46.7682" x2="20.5591" y2="41.3159" gradientUnits="userSpaceOnUse">
<stop stop-opacity="0.3"/>
<stop offset="1" stop-color="#EDF1F2" stop-opacity="0"/>
</linearGradient>
<linearGradient id="paint8_linear_134_311" x1="23.5749" y1="21.5885" x2="22.8795" y2="31.1022" gradientUnits="userSpaceOnUse">
<stop stop-opacity="0.3"/>
<stop offset="1" stop-color="#EDF1F2" stop-opacity="0"/>
</linearGradient>
<clipPath id="clip0_134_311">
<rect width="80" height="80" rx="18" fill="white"/>
</clipPath>
<clipPath id="clip1_134_311">
<rect width="50" height="50" fill="white" transform="translate(15 15)"/>
</clipPath>
</defs>
</svg>
