<svg width="80" height="80" viewBox="0 0 80 80" fill="none" xmlns="http://www.w3.org/2000/svg">
<rect x="1" y="1" width="78" height="78" rx="24" fill="#030303" stroke="url(#paint0_linear_1030_14961)" stroke-width="2"/>
<g clip-path="url(#clip0_1030_14961)">
<path d="M28.9805 21C27.4111 21.8295 26.5035 23.7873 25.8279 25.4303C24.7318 28.0958 24.0034 30.8992 23.445 33.7278C22.8476 36.7564 22.4431 39.8217 22.0249 42.8802C21.848 44.1762 21.6688 45.4882 21.8043 46.7888C21.9399 48.0894 22.4271 49.4015 23.3945 50.2816C20.4302 48.8707 17.7923 46.7796 15.7449 44.2152C15.5703 43.9969 15.3198 43.9204 15.2647 43.647C15.2385 43.5766 15.3244 43.1008 15.3497 42.9077C15.9333 38.2431 16.88 33.6244 18.1783 29.1045C18.5023 27.9763 18.9158 26.6855 19.2904 25.571C19.4777 25.0137 19.8581 24.8988 20.2556 24.6805C21.0737 24.2715 21.8107 23.8722 22.6379 23.4747C23.4652 23.0772 24.2452 22.7489 25.0885 22.4249C26.0076 22.0734 26.8849 21.6342 27.8339 21.3677C28.1464 21.2803 28.6956 21.1517 28.9805 21Z" fill="white"/>
<path d="M27.5605 50.2518L26.4736 55.3553L26.3127 56.0838C23.3991 56.4836 19.8075 57.6256 17.4269 56.263C13.8216 54.1995 14.6672 50.1231 14.9544 46.6419C15.0372 45.6239 15.136 44.6083 15.2601 43.5903C15.2509 43.6731 15.5128 43.9212 15.5703 43.9925C17.3557 46.2558 19.626 48.2159 22.2846 49.6751C22.8016 49.9577 23.3278 50.2449 23.8954 50.4402C25.0972 50.8584 26.361 50.5115 27.5582 50.2518H27.5605Z" fill="white"/>
<path d="M27.5605 50.2518L26.4736 55.3553L26.3127 56.0838C23.3991 56.4836 19.8075 57.6256 17.4269 56.263C13.8216 54.1995 14.6672 50.1231 14.9544 46.6419C15.0372 45.6239 15.136 44.6083 15.2601 43.5903C15.2509 43.6731 15.5128 43.9212 15.5703 43.9925C17.3557 46.2558 19.626 48.2159 22.2846 49.6751C22.8016 49.9577 23.3278 50.2449 23.8954 50.4402C25.0972 50.8584 26.361 50.5115 27.5582 50.2518H27.5605Z" fill="url(#paint1_linear_1030_14961)" fill-opacity="0.5"/>
<g filter="url(#filter0_i_1030_14961)">
<path d="M51.1089 36.2876C51.1089 36.2876 50.9342 36.7771 50.8883 36.869C50.6608 37.34 50.5023 37.8341 50.2931 38.312C50.084 38.79 49.8856 39.3943 49.5937 39.8378C48.9503 40.8213 48.0757 41.5681 47.1014 42.3103C47.2186 42.2207 46.9773 41.9289 46.9268 41.8507C46.4557 41.12 45.8859 40.4513 45.2333 39.8378C44.9874 39.6103 44.7323 39.392 44.4704 39.1783C43.4662 38.3626 42.3495 37.6548 41.1982 37.0092C41.1086 36.9586 41.019 36.9103 40.9294 36.8598C39.9689 36.3313 38.9716 35.8533 37.9583 35.4075C36.9564 34.9664 35.9293 34.5665 34.886 34.2058C34.0174 33.9047 33.142 33.6267 32.2481 33.3877C32.0918 33.3464 30.0559 32.8569 30.0422 32.9787C30.3478 30.389 30.9912 28.8495 33.6567 28.275C35.8718 27.8292 38.2685 28.3462 40.1757 29.0632C43.6753 30.3844 46.7062 32.5031 49.4062 34.771C49.9898 35.2605 51.1043 36.2853 51.1066 36.2853L51.1089 36.2876Z" fill="url(#paint2_linear_1030_14961)"/>
</g>
<path d="M51.1089 36.2876C51.1089 36.2876 50.9342 36.7771 50.8883 36.869C50.6608 37.34 50.5023 37.8341 50.2931 38.312C50.084 38.79 49.8451 39.2611 49.5532 39.7045C48.9098 40.688 48.0757 41.5681 47.1014 42.3103C47.2186 42.2207 46.9773 41.9289 46.9268 41.8507C46.4557 41.12 45.8859 40.4513 45.2333 39.8378C44.9874 39.6103 44.7323 39.392 44.4704 39.1783C43.4662 38.3626 42.3495 37.6548 41.1982 37.0092C41.1086 36.9586 41.019 36.9103 40.9294 36.8598C39.9689 36.3313 38.9716 35.8533 37.9583 35.4075C36.9564 34.9664 35.9293 34.5665 34.886 34.2058C34.0174 33.9047 33.142 33.6267 32.2481 33.3877C32.0918 33.3464 30.0559 32.8569 30.0422 32.9787C30.3478 30.389 30.9912 28.8495 33.6567 28.275C35.8718 27.8292 38.2685 28.3462 40.1757 29.0632C43.6753 30.3844 46.7062 32.5031 49.4062 34.771C49.9898 35.2605 51.1043 36.2853 51.1066 36.2853L51.1089 36.2876Z" fill="url(#paint3_linear_1030_14961)" fill-opacity="0.5"/>
<g filter="url(#filter1_i_1030_14961)">
<path d="M33.397 55.3207C33.3947 54.2384 33.4545 53.0114 33.5648 51.7039C33.5671 51.6832 33.5694 51.6625 33.5694 51.6419C33.6337 50.8859 33.7118 50.1023 33.8037 49.3095C33.9922 49.2245 34.2105 49.1211 34.4127 49.0223C36.6462 47.9446 41.2258 45.9731 44.4014 44.1003C46.2168 43.0318 48.0412 41.807 49.2522 40.1802C49.7715 39.4816 50.1323 38.7118 50.4517 37.9283C50.6746 37.3814 50.8837 36.8322 51.1089 36.2876C60.5347 44.468 42.1794 51.9865 33.397 55.3207Z" fill="url(#paint4_linear_1030_14961)"/>
</g>
<path d="M33.397 55.3207C33.3947 54.2384 33.4545 53.0114 33.5648 51.7039C33.5671 51.6832 33.5694 51.6625 33.5694 51.6419C33.6337 50.8859 33.7118 50.1023 33.8037 49.3095C33.9922 49.2245 34.2105 49.1211 34.4127 49.0223C36.6462 47.9446 41.2258 45.9731 44.4014 44.1003C46.2168 43.0318 48.0412 41.807 49.2522 40.1802C49.7715 39.4816 50.1323 38.7118 50.4517 37.9283C50.6746 37.3814 50.8837 36.8322 51.1089 36.2876C60.5347 44.468 42.1794 51.9865 33.397 55.3207Z" fill="url(#paint5_linear_1030_14961)" fill-opacity="0.5"/>
<path d="M37.1356 35.0354C36.7404 34.909 36.2579 35.187 36.1636 35.5822C35.642 37.7767 34.438 43.8338 33.8037 49.3119C33.7118 50.1047 33.6337 50.8883 33.5694 51.6442C33.5694 51.6649 33.5671 51.6856 33.5648 51.7063C33.4545 53.0138 33.3947 54.2408 33.397 55.3231C33.4085 57.3636 33.6659 59.0778 34.2886 59.5902C34.2909 59.5902 34.2955 59.5948 34.3001 59.5971C32.9283 58.9445 29.7871 56.9523 26.924 53.1677C27.6386 49.5141 28.1694 45.8514 28.7668 42.207C29.2701 39.1324 29.6998 35.9436 30.0606 32.8713C31.892 32.9426 36.5428 34.8102 37.1379 35.0376L37.1356 35.0354Z" fill="white"/>
<path d="M30.4962 33.4211C30.8412 33.4742 31.2596 33.5655 31.7257 33.6907C32.4132 33.8752 33.1732 34.1182 33.9005 34.3684C34.6239 34.6172 35.3086 34.8703 35.8517 35.0764C35.7972 35.1556 35.7516 35.2426 35.7169 35.3362L35.6769 35.4661V35.467C35.1842 37.5402 34.092 43.0099 33.4328 48.217L33.3068 49.2542C33.2143 50.0521 33.1362 50.8409 33.0714 51.6018L33.0695 51.6233V51.6389L33.0675 51.6506L33.0665 51.6643C32.9832 52.6527 32.9287 53.5985 32.9074 54.4739L32.8966 55.3245V55.3254C32.9025 56.3616 32.9705 57.3347 33.1222 58.1243C33.1393 58.2133 33.1583 58.3005 33.1779 58.386C31.665 57.4166 29.4998 55.6911 27.4562 53.0374C27.9735 50.3644 28.3985 47.6839 28.8214 45.0198L29.2599 42.2883V42.2874C29.7378 39.3677 30.1471 36.3465 30.4962 33.4211Z" stroke="#F4E409" stroke-opacity="0.1"/>
<path d="M36.1636 35.5799C36.2578 35.1847 36.7404 34.909 37.1356 35.033C36.5405 34.8056 31.8758 33.05 30.0444 32.9788C29.686 36.051 29.2678 39.1278 28.7645 42.2024C28.7094 42.5401 28.6542 42.8802 28.6014 43.218L34.585 43.7833C35.1687 40.2101 35.8167 37.0391 36.1636 35.5799Z" fill="url(#paint6_linear_1030_14961)" fill-opacity="0.5"/>
<path d="M33.5694 51.642C33.6337 50.886 33.7118 50.1024 33.8037 49.3096C34.0174 47.4759 34.2932 45.5802 34.585 43.7833L28.6014 43.218C28.0683 46.5292 27.572 49.8496 26.924 53.1631C29.7871 56.95 32.9283 58.9399 34.3001 59.5925C34.2978 59.5925 34.2932 59.5879 34.2886 59.5856C33.6659 59.0709 33.4062 57.359 33.397 55.3185C33.3947 54.2362 33.4545 53.0092 33.5648 51.7017C33.5671 51.681 33.5694 51.6603 33.5694 51.6397V51.642Z" fill="url(#paint7_linear_1030_14961)" fill-opacity="0.5"/>
<path d="M15.3497 42.9054C15.3244 43.0984 15.2639 43.3595 15.2805 43.4757C15.3357 43.7491 15.5703 43.9946 15.7449 44.2129C17.7946 46.7773 20.4302 48.8683 23.3945 50.2792C22.4271 49.3991 21.9399 48.087 21.8043 46.7865C21.6688 45.4859 21.848 44.1738 22.0249 42.8778C22.3352 40.6144 22.6362 38.3487 23.0153 36.0968L16.8203 34.4424C16.1976 37.2389 15.7058 40.0629 15.3497 42.9031V42.9054Z" fill="url(#paint8_linear_1030_14961)" fill-opacity="0.5"/>
<path d="M27.8316 21.3655C26.8826 21.632 26.0327 22.0378 25.1136 22.3894C24.2703 22.7111 23.4384 23.0696 22.625 23.4625C21.8001 23.86 20.8624 24.3723 20.0444 24.7813C19.6468 25.0019 19.3812 25.2352 19.2147 25.7337C18.8424 26.8481 18.5 27.9741 18.176 29.1023C17.6682 30.8671 17.2178 32.6502 16.818 34.4426L23.013 36.097C23.1463 35.3042 23.2888 34.5138 23.4427 33.7256C24.0011 30.897 24.7272 28.0936 25.8256 25.4281C26.5012 23.7874 27.4088 21.8273 28.9782 20.9978C28.6933 21.1472 28.1441 21.2758 27.8316 21.3655Z" fill="url(#paint9_linear_1030_14961)" fill-opacity="0.5"/>
<g filter="url(#filter2_i_1030_14961)">
<path d="M48.7352 62.2993C44.1119 64.6798 38.9004 66.0861 33.6751 65.6357C31.3519 65.4358 28.6818 65.4082 26.6942 64.1697C25.2465 63.2689 25.3293 61.3686 25.5016 59.983C25.7498 57.9701 26.3472 56.0238 26.7516 54.0362C26.7815 53.8914 26.8866 53.2915 26.924 53.1653C28.0798 54.6934 29.4401 56.1088 31.0027 57.3267C31.9815 58.0896 33.0202 58.9352 34.2219 59.4131C37.8572 60.8585 40.5273 59.4499 43.7558 57.7794C47.0256 56.0882 50.2564 53.8638 52.9288 51.5016C58.8251 46.2878 61.7778 38.3763 56.9845 31.7975C54.4339 28.2956 50.7091 25.0487 46.4741 23.1783C42.9561 21.6249 39.0451 20.8391 35.1227 20.6897C33.6636 20.6345 32.1746 20.6277 30.7338 20.8597C29.2931 21.0918 27.7971 21.5537 26.3794 22.0362C23.9023 22.8796 21.5263 23.9825 19.3847 25.3658C20.058 23.5459 20.8852 21.7743 21.9928 20.1704C23.0682 18.6101 24.5342 17.1096 26.4759 16.3927C32.3653 14.2304 50.7343 13.8697 60.1188 24.3387C67.6764 32.7718 66.4861 46.6325 58.8435 54.7094C56.1274 57.5795 52.6439 60.2863 48.7398 62.297L48.7352 62.2993Z" fill="url(#paint10_linear_1030_14961)"/>
</g>
<path d="M26.6484 16.8623C29.4918 15.8184 35.4673 15.1837 41.915 16.124C48.1539 17.0339 54.7378 19.4041 59.3105 24.2002L59.746 24.6729C66.99 32.756 66.0044 46.0264 58.8271 53.9902L58.4804 54.3662C55.8025 57.1959 52.3657 59.8664 48.5165 61.8496L48.5117 61.8516L48.5068 61.8545C44.087 64.1303 39.1461 65.4913 34.1972 65.1738L33.7177 65.1377C32.5288 65.0354 31.3197 64.9811 30.1357 64.7979C29.107 64.6387 28.1442 64.3875 27.3085 63.9463L26.9589 63.7451H26.9579C26.3904 63.3919 26.1047 62.8392 25.9824 62.1689C25.8891 61.6575 25.8969 61.1028 25.9423 60.5693L25.998 60.0449V60.0439C26.1187 59.0649 26.3248 58.0962 26.5546 57.1143C26.7689 56.199 27.0048 55.259 27.2021 54.3164C28.0705 55.3628 29.0369 56.3495 30.1054 57.2441L30.6952 57.7207C31.5948 58.4217 32.6178 59.2556 33.7988 59.7773L34.037 59.8779C37.4262 61.2254 40.0479 60.2177 42.7968 58.834L43.9853 58.2236C47.0853 56.6202 50.1489 54.5443 52.747 52.3223L53.2597 51.876C56.266 49.2177 58.5443 45.8535 59.4501 42.2842C60.331 38.8131 59.9086 35.1593 57.6161 31.8252L57.3886 31.5029C54.8741 28.0506 51.2373 24.8385 47.08 22.9043L46.6757 22.7207C43.3147 21.2368 39.6113 20.4436 35.8867 20.2256L35.1415 20.1904C33.6755 20.135 32.1458 20.1259 30.6542 20.3662C29.5409 20.5456 28.4025 20.8564 27.3027 21.2051L26.2187 21.5625C24.1925 22.2523 22.2283 23.1151 20.3993 24.1631C20.8604 23.0809 21.3887 22.0337 22.0126 21.0469L22.4042 20.4541C23.4494 18.9377 24.8414 17.5286 26.6474 16.8613L26.6484 16.8623Z" stroke="#F4E409" stroke-opacity="0.05" stroke-miterlimit="10"/>
</g>
<defs>
<filter id="filter0_i_1030_14961" x="26.0422" y="28.1091" width="25.0667" height="18.2012" filterUnits="userSpaceOnUse" color-interpolation-filters="sRGB">
<feFlood flood-opacity="0" result="BackgroundImageFix"/>
<feBlend mode="normal" in="SourceGraphic" in2="BackgroundImageFix" result="shape"/>
<feColorMatrix in="SourceAlpha" type="matrix" values="0 0 0 0 0 0 0 0 0 0 0 0 0 0 0 0 0 0 127 0" result="hardAlpha"/>
<feOffset dx="-4" dy="4"/>
<feGaussianBlur stdDeviation="2"/>
<feComposite in2="hardAlpha" operator="arithmetic" k2="-1" k3="1"/>
<feColorMatrix type="matrix" values="0 0 0 0 0.899832 0 0 0 0 0.84383 0 0 0 0 0.0773021 0 0 0 0.4 0"/>
<feBlend mode="normal" in2="shape" result="effect1_innerShadow_1030_14961"/>
</filter>
<filter id="filter1_i_1030_14961" x="29.397" y="36.2876" width="24.3339" height="23.0332" filterUnits="userSpaceOnUse" color-interpolation-filters="sRGB">
<feFlood flood-opacity="0" result="BackgroundImageFix"/>
<feBlend mode="normal" in="SourceGraphic" in2="BackgroundImageFix" result="shape"/>
<feColorMatrix in="SourceAlpha" type="matrix" values="0 0 0 0 0 0 0 0 0 0 0 0 0 0 0 0 0 0 127 0" result="hardAlpha"/>
<feOffset dx="-4" dy="4"/>
<feGaussianBlur stdDeviation="2"/>
<feComposite in2="hardAlpha" operator="arithmetic" k2="-1" k3="1"/>
<feColorMatrix type="matrix" values="0 0 0 0 0.899832 0 0 0 0 0.84383 0 0 0 0 0.0773021 0 0 0 0.4 0"/>
<feBlend mode="normal" in2="shape" result="effect1_innerShadow_1030_14961"/>
</filter>
<filter id="filter2_i_1030_14961" x="15.3847" y="15.165" width="49.8339" height="54.5542" filterUnits="userSpaceOnUse" color-interpolation-filters="sRGB">
<feFlood flood-opacity="0" result="BackgroundImageFix"/>
<feBlend mode="normal" in="SourceGraphic" in2="BackgroundImageFix" result="shape"/>
<feColorMatrix in="SourceAlpha" type="matrix" values="0 0 0 0 0 0 0 0 0 0 0 0 0 0 0 0 0 0 127 0" result="hardAlpha"/>
<feOffset dx="-4" dy="4"/>
<feGaussianBlur stdDeviation="2"/>
<feComposite in2="hardAlpha" operator="arithmetic" k2="-1" k3="1"/>
<feColorMatrix type="matrix" values="0 0 0 0 0.899832 0 0 0 0 0.84383 0 0 0 0 0.0773021 0 0 0 0.4 0"/>
<feBlend mode="normal" in2="shape" result="effect1_innerShadow_1030_14961"/>
</filter>
<linearGradient id="paint0_linear_1030_14961" x1="5.12842" y1="2.754" x2="74.9142" y2="78.3695" gradientUnits="userSpaceOnUse">
<stop stop-color="#6A5325"/>
<stop offset="0.201932" stop-color="#896C2E"/>
<stop offset="0.408668" stop-color="#E0C483"/>
<stop offset="0.62502" stop-color="#6A5325"/>
<stop offset="0.86541" stop-color="#E0C483"/>
<stop offset="1" stop-color="#A88636"/>
</linearGradient>
<linearGradient id="paint1_linear_1030_14961" x1="26.9469" y1="52.9265" x2="19.9431" y2="50.9917" gradientUnits="userSpaceOnUse">
<stop stop-opacity="0.3"/>
<stop offset="1" stop-color="#EDF1F2" stop-opacity="0"/>
</linearGradient>
<linearGradient id="paint2_linear_1030_14961" x1="35.8943" y1="30.2731" x2="52.5235" y2="39.039" gradientUnits="userSpaceOnUse">
<stop stop-color="white"/>
<stop offset="0.501959" stop-color="#F82757"/>
<stop offset="0.867222" stop-color="#634A80"/>
</linearGradient>
<linearGradient id="paint3_linear_1030_14961" x1="47.7104" y1="41.3038" x2="40.7616" y2="34.8055" gradientUnits="userSpaceOnUse">
<stop stop-opacity="0.3"/>
<stop offset="1" stop-color="#EDF1F2" stop-opacity="0"/>
</linearGradient>
<linearGradient id="paint4_linear_1030_14961" x1="34.2299" y1="40.2657" x2="52.3143" y2="37.0808" gradientUnits="userSpaceOnUse">
<stop stop-color="white"/>
<stop offset="0.501959" stop-color="#F82757"/>
<stop offset="0.867222" stop-color="#634A80"/>
</linearGradient>
<linearGradient id="paint5_linear_1030_14961" x1="33.397" y1="45.803" x2="53.7307" y2="45.803" gradientUnits="userSpaceOnUse">
<stop stop-opacity="0.3"/>
<stop offset="1" stop-color="#EDF1F2" stop-opacity="0"/>
</linearGradient>
<linearGradient id="paint6_linear_1030_14961" x1="33.6199" y1="33.8313" x2="32.5284" y2="40.4721" gradientUnits="userSpaceOnUse">
<stop stop-opacity="0.3"/>
<stop offset="1" stop-color="#EDF1F2" stop-opacity="0"/>
</linearGradient>
<linearGradient id="paint7_linear_1030_14961" x1="30.6166" y1="56.2331" x2="30.8717" y2="48.8707" gradientUnits="userSpaceOnUse">
<stop stop-opacity="0.3"/>
<stop offset="1" stop-color="#EDF1F2" stop-opacity="0"/>
</linearGradient>
<linearGradient id="paint8_linear_1030_14961" x1="18.6586" y1="47.2851" x2="20.2809" y2="41.7725" gradientUnits="userSpaceOnUse">
<stop stop-opacity="0.3"/>
<stop offset="1" stop-color="#EDF1F2" stop-opacity="0"/>
</linearGradient>
<linearGradient id="paint9_linear_1030_14961" x1="23.3301" y1="21.8273" x2="22.627" y2="31.4461" gradientUnits="userSpaceOnUse">
<stop stop-opacity="0.3"/>
<stop offset="1" stop-color="#EDF1F2" stop-opacity="0"/>
</linearGradient>
<linearGradient id="paint10_linear_1030_14961" x1="34.1227" y1="20.856" x2="72.5093" y2="25.2446" gradientUnits="userSpaceOnUse">
<stop stop-color="white"/>
<stop offset="0.501959" stop-color="#F82757"/>
<stop offset="0.867222" stop-color="#634A80"/>
</linearGradient>
<clipPath id="clip0_1030_14961">
<rect width="50.5528" height="50.5528" fill="white" transform="translate(14.6603 15.1658)"/>
</clipPath>
</defs>
</svg>
