<svg width="40" height="40" viewBox="0 0 40 40" fill="none" xmlns="http://www.w3.org/2000/svg">
<path d="M35.8474 5.81237L34.1911 4.15612C34.1286 4.09362 34.0505 4.06627 33.9685 4.06627C33.8864 4.06627 33.8083 4.09752 33.7458 4.15612L30.7732 7.12877C29.4809 6.2532 27.9552 5.78638 26.3942 5.78893C24.3942 5.78893 22.3942 6.55065 20.8669 8.07799L16.8864 12.0585C16.8283 12.1172 16.7957 12.1965 16.7957 12.2792C16.7957 12.3618 16.8283 12.4411 16.8864 12.4999L27.4997 23.1131C27.5622 23.1756 27.6403 23.203 27.7224 23.203C27.8005 23.203 27.8825 23.1717 27.945 23.1131L31.9255 19.1327C34.6169 16.4374 34.9333 12.2694 32.8747 9.23034L35.8474 6.25768C35.9685 6.13268 35.9685 5.93346 35.8474 5.81237ZM22.613 21.3553C22.5543 21.2972 22.475 21.2646 22.3923 21.2646C22.3096 21.2646 22.2303 21.2972 22.1716 21.3553L19.57 23.9569L16.0427 20.4296L18.6482 17.8241C18.7692 17.703 18.7692 17.5038 18.6482 17.3827L17.2263 15.9608C17.1675 15.9026 17.0882 15.87 17.0056 15.87C16.9229 15.87 16.8436 15.9026 16.7849 15.9608L14.1794 18.5663L12.4997 16.8866C12.4706 16.8574 12.4358 16.8344 12.3975 16.819C12.3593 16.8035 12.3183 16.796 12.2771 16.7967C12.1989 16.7967 12.1169 16.828 12.0544 16.8866L8.07784 20.8671C5.38644 23.5585 5.07003 27.7303 7.12862 30.7694L4.15597 33.7421C4.09781 33.8008 4.06519 33.8801 4.06519 33.9628C4.06519 34.0454 4.09781 34.1247 4.15597 34.1835L5.81222 35.8397C5.87472 35.9022 5.95284 35.9296 6.03487 35.9296C6.1169 35.9296 6.19503 35.8983 6.25753 35.8397L9.23019 32.8671C10.5466 33.7616 12.0778 34.2069 13.6091 34.2069C15.6091 34.2069 17.6091 33.4452 19.1364 31.9178L23.1169 27.9374C23.238 27.8163 23.238 27.6171 23.1169 27.496L21.4372 25.8163L24.0427 23.2108C24.1638 23.0897 24.1638 22.8905 24.0427 22.7694L22.613 21.3553Z" fill="white"/>
</svg>
