<svg width="40" height="40" viewBox="0 0 40 40" fill="none" xmlns="http://www.w3.org/2000/svg">
<path d="M34.8477 28.8203L30.5391 26.332C30.4683 26.2915 30.3902 26.2653 30.3093 26.255C30.2284 26.2446 30.1462 26.2503 30.0675 26.2717C29.9888 26.2931 29.9151 26.3298 29.8505 26.3797C29.786 26.4296 29.7319 26.4917 29.6914 26.5625L28.9141 27.9102C28.7422 28.207 28.8438 28.5898 29.1406 28.7617L33.4492 31.25C33.52 31.2905 33.5981 31.3167 33.679 31.3271C33.7599 31.3374 33.8421 31.3317 33.9208 31.3103C33.9995 31.2889 34.0732 31.2522 34.1378 31.2023C34.2023 31.1524 34.2564 31.0903 34.2969 31.0195L35.0742 29.6719C35.2461 29.375 35.1406 28.9922 34.8477 28.8203ZM29.6875 13.4375C29.728 13.5083 29.7821 13.5704 29.8466 13.6203C29.9111 13.6702 29.9849 13.7069 30.0636 13.7283C30.1423 13.7497 30.2245 13.7554 30.3054 13.745C30.3863 13.7347 30.4644 13.7085 30.5352 13.668L34.8438 11.1797C35.1406 11.0078 35.2422 10.625 35.0703 10.3281L34.2969 8.98438C34.2564 8.91358 34.2023 8.85146 34.1378 8.80156C34.0732 8.75166 33.9995 8.71497 33.9208 8.69357C33.8421 8.67216 33.7599 8.66648 33.679 8.67683C33.5981 8.68718 33.52 8.71338 33.4492 8.75391L29.1406 11.2422C28.998 11.3254 28.894 11.4616 28.8516 11.6212C28.8091 11.7808 28.8316 11.9507 28.9141 12.0938L29.6875 13.4375ZM36.4844 18.5938H31.4844C31.1406 18.5938 30.8594 18.875 30.8594 19.2188V20.7812C30.8594 21.125 31.1406 21.4062 31.4844 21.4062H36.4844C36.8281 21.4062 37.1094 21.125 37.1094 20.7812V19.2188C37.1094 18.875 36.8281 18.5938 36.4844 18.5938ZM24.4492 4.49219C24.2188 4.49219 23.9844 4.55469 23.7695 4.69922L9.92188 13.75H3.51562C3.17188 13.75 2.89062 14.0312 2.89062 14.375V25.625C2.89062 25.9688 3.17188 26.25 3.51562 26.25H9.92188L23.7695 35.3008C23.9844 35.4414 24.2227 35.5078 24.4492 35.5078C25.1016 35.5078 25.7031 34.9883 25.7031 34.2539V5.74609C25.7031 5.01172 25.1016 4.49219 24.4492 4.49219Z" fill="white"/>
</svg>
