<svg width="41" height="40" viewBox="0 0 41 40" fill="none" xmlns="http://www.w3.org/2000/svg">
<path d="M20.4998 9.53125C27.3818 9.53125 32.9607 15.1102 32.9607 21.9922V31.0938C32.9607 31.4253 32.829 31.7432 32.5946 31.9776C32.3602 32.2121 32.0422 32.3438 31.7107 32.3438H9.28882C8.9573 32.3438 8.63936 32.2121 8.40494 31.9776C8.17052 31.7432 8.03882 31.4253 8.03882 31.0938V21.9922C8.03882 15.1102 13.6177 9.53125 20.4998 9.53125ZM19.406 2.65625H21.5935C21.6764 2.65625 21.7559 2.68917 21.8145 2.74778C21.8731 2.80638 21.906 2.88587 21.906 2.96875V6.71875C21.906 6.80163 21.8731 6.88112 21.8145 6.93972C21.7559 6.99833 21.6764 7.03125 21.5935 7.03125H19.406C19.3231 7.03125 19.2436 6.99833 19.185 6.93972C19.1264 6.88112 19.0935 6.80163 19.0935 6.71875V2.96875C19.0935 2.88587 19.1264 2.80638 19.185 2.74778C19.2436 2.68917 19.3231 2.65625 19.406 2.65625ZM7.42359 7.48672C7.45261 7.45766 7.48707 7.43461 7.52501 7.41889C7.56295 7.40316 7.60361 7.39507 7.64468 7.39507C7.68575 7.39507 7.72641 7.40316 7.76435 7.41889C7.80229 7.43461 7.83675 7.45766 7.86577 7.48672L10.5173 10.1383C10.5759 10.1969 10.6088 10.2763 10.6088 10.3592C10.6088 10.442 10.5759 10.5215 10.5173 10.5801L8.97046 12.127C8.91186 12.1855 8.83241 12.2184 8.74956 12.2184C8.66672 12.2184 8.58726 12.1855 8.52866 12.127L5.8771 9.47539C5.81854 9.41679 5.78564 9.33734 5.78564 9.25449C5.78564 9.17165 5.81854 9.09219 5.8771 9.03359L7.42398 7.48672H7.42359ZM33.5798 7.48672L35.1267 9.03359C35.1852 9.09218 35.218 9.17155 35.218 9.2543C35.218 9.33705 35.1852 9.41642 35.1267 9.475L32.4751 12.1273C32.4461 12.1564 32.4117 12.1794 32.3737 12.1952C32.3358 12.2109 32.2951 12.219 32.2541 12.219C32.213 12.219 32.1723 12.2109 32.1344 12.1952C32.0964 12.1794 32.062 12.1564 32.033 12.1273L30.4861 10.5805C30.457 10.5514 30.434 10.517 30.4183 10.479C30.4025 10.4411 30.3944 10.4004 30.3944 10.3594C30.3944 10.3183 30.4025 10.2776 30.4183 10.2397C30.434 10.2018 30.457 10.1673 30.4861 10.1383L33.138 7.48672C33.1966 7.42816 33.2761 7.39526 33.3589 7.39526C33.4418 7.39526 33.5212 7.42816 33.5798 7.48672V7.48672ZM7.99976 34.8438H32.9998C33.3313 34.8438 33.6492 34.9754 33.8836 35.2099C34.1181 35.4443 34.2498 35.7622 34.2498 36.0938V37.0312C34.2498 37.1141 34.2168 37.1936 34.1582 37.2522C34.0996 37.3108 34.0201 37.3438 33.9373 37.3438H7.06226C6.97938 37.3438 6.89989 37.3108 6.84129 37.2522C6.78268 37.1936 6.74976 37.1141 6.74976 37.0312V36.0938C6.74976 35.7622 6.88145 35.4443 7.11587 35.2099C7.35029 34.9754 7.66824 34.8438 7.99976 34.8438ZM13.781 22.4609V32.3438H16.281V22.4609H13.781Z" fill="white"/>
</svg>
